<?xml version="1.0" standalone="no"?>
<!DOCTYPE svg PUBLIC "-//W3C//DTD SVG 20010904//EN"
 "http://www.w3.org/TR/2001/REC-SVG-20010904/DTD/svg10.dtd">
<svg version="1.0" xmlns="http://www.w3.org/2000/svg"
 width="490.000000pt" height="490.000000pt" viewBox="0 0 490.000000 490.000000"
 preserveAspectRatio="xMidYMid meet">
<metadata>
Created by potrace 1.14, written by Peter Selinger 2001-2017
</metadata>
<g transform="translate(0.000000,490.000000) scale(0.100000,-0.100000)"
fill="#000000" stroke="none">
<path d="M2240 4865 c-425 -68 -809 -343 -1009 -724 -249 -476 -200 -1053 125
-1486 100 -134 309 -316 421 -366 64 -29 113 -1 113 64 0 28 -21 49 -120 112
-103 67 -274 239 -344 348 -149 228 -213 464 -203 737 26 658 566 1180 1221
1180 439 0 831 -224 1058 -605 177 -296 218 -688 107 -1019 -88 -264 -259
-489 -489 -641 -55 -37 -105 -76 -110 -86 -6 -10 -10 -110 -10 -223 l0 -206
-599 0 -600 0 -15 -22 c-24 -35 -23 -257 2 -288 15 -19 86 -35 592 -131 316
-60 576 -109 578 -109 6 0 1 -40 -5 -40 -5 0 -233 43 -508 95 -275 52 -512 95
-526 95 -45 0 -89 -57 -89 -117 0 -31 29 -81 50 -88 9 -3 146 -30 304 -60
l288 -55 308 0 309 0 20 26 c19 24 21 40 21 150 0 140 -7 168 -47 181 -15 5
-282 59 -591 119 l-564 109 584 5 c320 3 590 9 599 13 33 17 39 55 39 266 l0
208 63 41 c230 149 436 419 531 695 55 160 70 256 70 457 0 165 -3 197 -26
297 -114 484 -452 859 -913 1012 -202 67 -434 87 -635 56z"/>
<path d="M2372 4188 c-116 -155 -149 -311 -92 -442 18 -43 113 -156 130 -156
4 0 11 15 14 33 3 17 33 68 66 111 33 43 65 95 71 115 19 54 14 148 -10 211
-20 54 -104 169 -128 177 -6 2 -29 -20 -51 -49z m37 -403 c0 -49 -4 -99 -8
-110 -12 -30 -22 125 -14 209 7 68 7 69 14 31 5 -22 8 -80 8 -130z"/>
<path d="M2848 4101 c-156 -105 -274 -239 -320 -366 -14 -40 -23 -92 -26 -156
-5 -111 9 -172 65 -283 l35 -70 21 29 c37 53 91 99 178 152 135 82 196 164
226 307 16 77 12 150 -13 250 -19 73 -69 186 -83 186 -5 0 -42 -22 -83 -49z
m-113 -488 c-28 -119 -128 -346 -118 -268 14 101 133 434 141 393 2 -9 -8 -65
-23 -125z"/>
<path d="M1654 3999 c26 -262 114 -450 263 -555 92 -67 156 -87 291 -92 l114
-4 -20 38 c-31 62 -40 102 -52 222 -15 159 -36 210 -124 298 -105 104 -213
149 -390 161 l-89 6 7 -74z m424 -394 c93 -89 193 -217 151 -195 -53 29 -299
287 -299 315 0 12 61 -37 148 -120z"/>
<path d="M3054 3422 c-21 -16 -59 -54 -83 -85 -34 -45 -49 -57 -71 -57 -19 0
-30 -7 -38 -25 -16 -36 -15 -55 4 -55 9 0 14 -3 12 -7 -2 -5 -27 -55 -56 -112
-106 -206 -152 -393 -152 -616 0 -138 15 -245 52 -363 22 -71 30 -82 65 -82
35 0 45 31 27 82 -67 188 -76 444 -23 653 28 110 82 243 142 351 l51 92 50 6
c67 7 147 48 169 85 9 16 17 47 17 69 0 33 -6 45 -31 66 -41 35 -85 34 -135
-2z m76 -83 c-10 -17 -59 -49 -77 -49 -4 0 10 18 32 40 39 40 64 45 45 9z"/>
<path d="M1784 3356 c-65 -28 -82 -96 -41 -156 41 -62 69 -74 170 -80 l92 -5
66 -130 c110 -219 166 -417 175 -625 5 -98 2 -141 -11 -200 -29 -128 -29 -132
-9 -147 10 -7 24 -13 31 -13 24 0 52 62 69 158 42 236 -23 562 -171 860 -35
69 -56 122 -50 122 10 0 10 8 0 38 -10 29 -19 38 -43 42 -20 3 -45 21 -71 52
-40 44 -128 98 -160 98 -9 -1 -30 -7 -47 -14z m74 -90 c15 -8 36 -23 46 -35
19 -21 19 -21 -17 -21 -48 0 -93 41 -70 63 9 9 10 9 41 -7z"/>
<path d="M2355 1781 c6 -5 168 -38 361 -75 271 -51 357 -64 377 -57 35 13 60
54 61 99 l1 37 -405 3 c-236 1 -400 -1 -395 -7z"/>
<path d="M2170 1129 c67 -60 203 -148 262 -171 66 -25 120 -25 186 0 59 23
195 111 262 171 l45 40 -400 0 -400 0 45 -40z"/>
<path d="M2445 584 c-38 -97 -71 -180 -73 -185 -2 -5 26 -9 63 -9 58 0 66 -2
61 -17 -64 -228 -87 -316 -84 -324 3 -9 268 410 268 424 0 4 -29 7 -65 7 -36
0 -65 2 -65 5 0 3 29 64 65 135 36 71 65 132 65 135 0 3 -37 5 -82 5 l-83 0
-70 -176z"/>
</g>
</svg>
